<svg width="84" height="12" viewBox="0 0 84 12" fill="none" xmlns="http://www.w3.org/2000/svg">
<path d="M4.72852 5.56787V6.33252H0.342773V5.56787H4.72852ZM2.94434 3.7002V8.3584H2.13135V3.7002H2.94434ZM13.1133 8.31006V9H8.27051V8.31006H13.1133ZM8.40674 8.31006V10.5732H7.56738L7.56299 8.31006H8.40674ZM13.8516 8.31006L13.8428 10.5688H13.0034V8.31006H13.8516ZM12.2827 2.60156V3.2959H9.479V2.60156H12.2827ZM13.0122 2.60156V9H12.1685V2.60156H13.0122ZM9.18896 2.60156H10.0371L9.90527 5.17676C9.8877 5.56348 9.85107 5.9209 9.79541 6.24902C9.73975 6.57422 9.6709 6.87158 9.58887 7.14111C9.50684 7.41064 9.41309 7.65234 9.30762 7.86621C9.20215 8.07715 9.08936 8.26025 8.96924 8.41553C8.84912 8.56787 8.72314 8.69385 8.59131 8.79346C8.4624 8.89014 8.33203 8.95898 8.2002 9H7.81348V8.31006H8.08594C8.16211 8.22803 8.24854 8.10938 8.34521 7.9541C8.44482 7.79883 8.54297 7.59814 8.63965 7.35205C8.73926 7.10303 8.82568 6.7998 8.89893 6.44238C8.9751 6.08496 9.02637 5.66309 9.05273 5.17676L9.18896 2.60156ZM14.5107 6.67529V6.57422C14.5107 6.23145 14.5605 5.91357 14.6602 5.62061C14.7598 5.32471 14.9033 5.06836 15.0908 4.85156C15.2783 4.63184 15.5054 4.46191 15.772 4.3418C16.0386 4.21875 16.3374 4.15723 16.6685 4.15723C17.0024 4.15723 17.3027 4.21875 17.5693 4.3418C17.8389 4.46191 18.0674 4.63184 18.2549 4.85156C18.4453 5.06836 18.5903 5.32471 18.6899 5.62061C18.7896 5.91357 18.8394 6.23145 18.8394 6.57422V6.67529C18.8394 7.01807 18.7896 7.33594 18.6899 7.62891C18.5903 7.92188 18.4453 8.17822 18.2549 8.39795C18.0674 8.61475 17.8403 8.78467 17.5737 8.90771C17.3101 9.02783 17.0112 9.08789 16.6772 9.08789C16.3433 9.08789 16.043 9.02783 15.7764 8.90771C15.5098 8.78467 15.2812 8.61475 15.0908 8.39795C14.9033 8.17822 14.7598 7.92188 14.6602 7.62891C14.5605 7.33594 14.5107 7.01807 14.5107 6.67529ZM15.3237 6.57422V6.67529C15.3237 6.9126 15.3516 7.13672 15.4072 7.34766C15.4629 7.55566 15.5464 7.74023 15.6577 7.90137C15.772 8.0625 15.9141 8.18994 16.084 8.28369C16.2539 8.37451 16.4517 8.41992 16.6772 8.41992C16.8999 8.41992 17.0947 8.37451 17.2617 8.28369C17.4316 8.18994 17.5723 8.0625 17.6836 7.90137C17.7949 7.74023 17.8784 7.55566 17.9341 7.34766C17.9927 7.13672 18.022 6.9126 18.022 6.67529V6.57422C18.022 6.33984 17.9927 6.11865 17.9341 5.91064C17.8784 5.69971 17.7935 5.51367 17.6792 5.35254C17.5679 5.18848 17.4272 5.05957 17.2573 4.96582C17.0903 4.87207 16.894 4.8252 16.6685 4.8252C16.4458 4.8252 16.2495 4.87207 16.0796 4.96582C15.9126 5.05957 15.772 5.18848 15.6577 5.35254C15.5464 5.51367 15.4629 5.69971 15.4072 5.91064C15.3516 6.11865 15.3237 6.33984 15.3237 6.57422ZM22.9087 2.17529H23.5767C23.5767 2.4624 23.5327 2.69092 23.4448 2.86084C23.3569 3.02783 23.2368 3.15674 23.0845 3.24756C22.9351 3.33838 22.7651 3.40723 22.5747 3.4541C22.3872 3.50098 22.1924 3.54639 21.9902 3.59033C21.7383 3.64307 21.5039 3.72656 21.2871 3.84082C21.0732 3.95215 20.8887 4.11035 20.7334 4.31543C20.5811 4.52051 20.4683 4.78711 20.395 5.11523C20.3247 5.44336 20.3057 5.84912 20.3379 6.33252V6.73682H19.6699V6.33252C19.6699 5.79053 19.7212 5.31738 19.8237 4.91309C19.9292 4.50879 20.0771 4.16748 20.2676 3.88916C20.458 3.61084 20.6836 3.38965 20.9443 3.22559C21.208 3.06152 21.498 2.94873 21.8145 2.88721C22.043 2.84326 22.2393 2.79639 22.4033 2.74658C22.5674 2.69385 22.6919 2.62354 22.7769 2.53564C22.8647 2.44775 22.9087 2.32764 22.9087 2.17529ZM21.9463 4.51758C22.2568 4.51758 22.5337 4.57178 22.7769 4.68018C23.02 4.78857 23.2266 4.93945 23.3965 5.13281C23.5664 5.32617 23.6953 5.55469 23.7832 5.81836C23.874 6.0791 23.9194 6.36328 23.9194 6.6709V6.76758C23.9194 7.09863 23.8711 7.40625 23.7744 7.69043C23.6807 7.97168 23.5415 8.21777 23.3569 8.42871C23.1753 8.63672 22.9526 8.79932 22.689 8.9165C22.4282 9.03369 22.1309 9.09229 21.7969 9.09229C21.4629 9.09229 21.1641 9.03369 20.9004 8.9165C20.6396 8.79932 20.417 8.63672 20.2324 8.42871C20.0479 8.21777 19.9072 7.97168 19.8105 7.69043C19.7168 7.40625 19.6699 7.09863 19.6699 6.76758V6.6709C19.6699 6.59766 19.6831 6.52588 19.7095 6.45557C19.7358 6.38525 19.7681 6.31348 19.8062 6.24023C19.8472 6.16699 19.8838 6.08936 19.916 6.00732C20.0244 5.74365 20.1724 5.49902 20.3599 5.27344C20.5503 5.04785 20.7773 4.86621 21.041 4.72852C21.3076 4.58789 21.6094 4.51758 21.9463 4.51758ZM21.7881 5.18115C21.4893 5.18115 21.2432 5.25 21.0498 5.3877C20.8594 5.52539 20.7173 5.7085 20.6235 5.93701C20.5298 6.1626 20.4829 6.40723 20.4829 6.6709V6.76758C20.4829 6.99023 20.5093 7.20117 20.562 7.40039C20.6147 7.59961 20.6938 7.77686 20.7993 7.93213C20.9077 8.08447 21.0439 8.20459 21.208 8.29248C21.375 8.38037 21.5713 8.42432 21.7969 8.42432C22.0225 8.42432 22.2173 8.38037 22.3813 8.29248C22.5454 8.20459 22.6802 8.08447 22.7856 7.93213C22.8911 7.77686 22.9702 7.59961 23.0229 7.40039C23.0757 7.20117 23.1021 6.99023 23.1021 6.76758V6.6709C23.1021 6.47168 23.0757 6.28271 23.0229 6.104C22.9702 5.92529 22.8896 5.76709 22.7812 5.62939C22.6758 5.4917 22.5396 5.3833 22.3726 5.3042C22.2085 5.22217 22.0137 5.18115 21.7881 5.18115ZM27.646 8.18701V5.73926C27.646 5.55176 27.6079 5.38916 27.5317 5.25146C27.4585 5.11084 27.3472 5.00244 27.1978 4.92627C27.0483 4.8501 26.8638 4.81201 26.644 4.81201C26.439 4.81201 26.2588 4.84717 26.1035 4.91748C25.9512 4.98779 25.8311 5.08008 25.7432 5.19434C25.6582 5.30859 25.6157 5.43164 25.6157 5.56348H24.8027C24.8027 5.39355 24.8467 5.2251 24.9346 5.05811C25.0225 4.89111 25.1484 4.74023 25.3125 4.60547C25.4795 4.46777 25.6787 4.35938 25.9102 4.28027C26.1445 4.19824 26.4053 4.15723 26.6924 4.15723C27.0381 4.15723 27.3428 4.21582 27.6064 4.33301C27.873 4.4502 28.0811 4.62744 28.2305 4.86475C28.3828 5.09912 28.459 5.39355 28.459 5.74805V7.96289C28.459 8.12109 28.4722 8.28955 28.4985 8.46826C28.5278 8.64697 28.5703 8.80078 28.626 8.92969V9H27.7778C27.7368 8.90625 27.7046 8.78174 27.6812 8.62646C27.6577 8.46826 27.646 8.32178 27.646 8.18701ZM27.7866 6.11719L27.7954 6.68848H26.9736C26.7422 6.68848 26.5356 6.70752 26.354 6.74561C26.1724 6.78076 26.02 6.83496 25.897 6.9082C25.7739 6.98145 25.6802 7.07373 25.6157 7.18506C25.5513 7.29346 25.519 7.4209 25.519 7.56738C25.519 7.7168 25.5527 7.85303 25.6201 7.97607C25.6875 8.09912 25.7886 8.19727 25.9233 8.27051C26.061 8.34082 26.2295 8.37598 26.4287 8.37598C26.6777 8.37598 26.8975 8.32324 27.0879 8.21777C27.2783 8.1123 27.4292 7.9834 27.5405 7.83105C27.6548 7.67871 27.7163 7.53076 27.7251 7.38721L28.0723 7.77832C28.0518 7.90137 27.9961 8.0376 27.9053 8.18701C27.8145 8.33643 27.6929 8.47998 27.5405 8.61768C27.3911 8.75244 27.2124 8.86523 27.0044 8.95605C26.7993 9.04395 26.5679 9.08789 26.3101 9.08789C25.9878 9.08789 25.7051 9.0249 25.4619 8.89893C25.2217 8.77295 25.0342 8.60449 24.8994 8.39355C24.7676 8.17969 24.7017 7.94092 24.7017 7.67725C24.7017 7.42236 24.7515 7.19824 24.8511 7.00488C24.9507 6.80859 25.0942 6.646 25.2817 6.51709C25.4692 6.38525 25.6948 6.28564 25.9585 6.21826C26.2222 6.15088 26.5166 6.11719 26.8418 6.11719H27.7866ZM31.9702 6.9082H30.4102L30.4014 6.25781H31.6758C31.9277 6.25781 32.1372 6.23291 32.3042 6.18311C32.4741 6.1333 32.6016 6.05859 32.6865 5.95898C32.7715 5.85938 32.814 5.73633 32.814 5.58984C32.814 5.47559 32.7891 5.37598 32.7393 5.29102C32.6924 5.20312 32.6206 5.13135 32.5239 5.07568C32.4272 5.01709 32.3071 4.97461 32.1636 4.94824C32.0229 4.91895 31.8574 4.9043 31.667 4.9043H30.6255V9H29.8125V4.24512H31.667C31.9688 4.24512 32.2397 4.27148 32.48 4.32422C32.7231 4.37695 32.9297 4.45752 33.0996 4.56592C33.2725 4.67139 33.4043 4.80615 33.4951 4.97021C33.5859 5.13428 33.6313 5.32764 33.6313 5.55029C33.6313 5.69385 33.6021 5.83008 33.5435 5.95898C33.4849 6.08789 33.3984 6.20215 33.2842 6.30176C33.1699 6.40137 33.0293 6.4834 32.8623 6.54785C32.6953 6.60938 32.5034 6.64893 32.2866 6.6665L31.9702 6.9082ZM31.9702 9H30.1157L30.52 8.34082H31.9702C32.1958 8.34082 32.3833 8.31299 32.5327 8.25732C32.6821 8.19873 32.7935 8.1167 32.8667 8.01123C32.9429 7.90283 32.981 7.77393 32.981 7.62451C32.981 7.4751 32.9429 7.34766 32.8667 7.24219C32.7935 7.13379 32.6821 7.05176 32.5327 6.99609C32.3833 6.9375 32.1958 6.9082 31.9702 6.9082H30.7354L30.7441 6.25781H32.2866L32.5811 6.50391C32.8418 6.52441 33.063 6.58887 33.2446 6.69727C33.4263 6.80566 33.564 6.94336 33.6577 7.11035C33.7515 7.27441 33.7983 7.45312 33.7983 7.64648C33.7983 7.86914 33.7559 8.06543 33.6709 8.23535C33.5889 8.40527 33.4688 8.54736 33.3105 8.66162C33.1523 8.77295 32.9604 8.85791 32.7349 8.9165C32.5093 8.97217 32.2544 9 31.9702 9ZM35.7671 7.7124L37.96 4.24512H38.7773V9H37.96V5.53271L35.7671 9H34.9585V4.24512H35.7671V7.7124ZM42.0205 4.24512V9H41.2031V4.24512H42.0205ZM43.6157 4.24512V4.9043H39.6387V4.24512H43.6157ZM45.0835 5.87988H46.5117C46.8955 5.87988 47.2192 5.94727 47.4829 6.08203C47.7466 6.21387 47.9458 6.39697 48.0806 6.63135C48.2183 6.86279 48.2871 7.12646 48.2871 7.42236C48.2871 7.64209 48.249 7.84863 48.1729 8.04199C48.0967 8.23242 47.9824 8.39941 47.8301 8.54297C47.6807 8.68652 47.4946 8.79932 47.272 8.88135C47.0522 8.96045 46.7988 9 46.5117 9H44.4902V4.24512H45.3032V8.33203H46.5117C46.7461 8.33203 46.9336 8.28955 47.0742 8.20459C47.2148 8.11963 47.3159 8.00977 47.3774 7.875C47.439 7.74023 47.4697 7.59961 47.4697 7.45312C47.4697 7.30957 47.439 7.16895 47.3774 7.03125C47.3159 6.89355 47.2148 6.7793 47.0742 6.68848C46.9336 6.59473 46.7461 6.54785 46.5117 6.54785H45.0835V5.87988ZM54.3384 8.18701V5.73926C54.3384 5.55176 54.3003 5.38916 54.2241 5.25146C54.1509 5.11084 54.0396 5.00244 53.8901 4.92627C53.7407 4.8501 53.5562 4.81201 53.3364 4.81201C53.1313 4.81201 52.9512 4.84717 52.7959 4.91748C52.6436 4.98779 52.5234 5.08008 52.4355 5.19434C52.3506 5.30859 52.3081 5.43164 52.3081 5.56348H51.4951C51.4951 5.39355 51.5391 5.2251 51.627 5.05811C51.7148 4.89111 51.8408 4.74023 52.0049 4.60547C52.1719 4.46777 52.3711 4.35938 52.6025 4.28027C52.8369 4.19824 53.0977 4.15723 53.3848 4.15723C53.7305 4.15723 54.0352 4.21582 54.2988 4.33301C54.5654 4.4502 54.7734 4.62744 54.9229 4.86475C55.0752 5.09912 55.1514 5.39355 55.1514 5.74805V7.96289C55.1514 8.12109 55.1646 8.28955 55.1909 8.46826C55.2202 8.64697 55.2627 8.80078 55.3184 8.92969V9H54.4702C54.4292 8.90625 54.397 8.78174 54.3735 8.62646C54.3501 8.46826 54.3384 8.32178 54.3384 8.18701ZM54.479 6.11719L54.4878 6.68848H53.666C53.4346 6.68848 53.228 6.70752 53.0464 6.74561C52.8647 6.78076 52.7124 6.83496 52.5894 6.9082C52.4663 6.98145 52.3726 7.07373 52.3081 7.18506C52.2437 7.29346 52.2114 7.4209 52.2114 7.56738C52.2114 7.7168 52.2451 7.85303 52.3125 7.97607C52.3799 8.09912 52.481 8.19727 52.6157 8.27051C52.7534 8.34082 52.9219 8.37598 53.1211 8.37598C53.3701 8.37598 53.5898 8.32324 53.7803 8.21777C53.9707 8.1123 54.1216 7.9834 54.2329 7.83105C54.3472 7.67871 54.4087 7.53076 54.4175 7.38721L54.7646 7.77832C54.7441 7.90137 54.6885 8.0376 54.5977 8.18701C54.5068 8.33643 54.3853 8.47998 54.2329 8.61768C54.0835 8.75244 53.9048 8.86523 53.6968 8.95605C53.4917 9.04395 53.2603 9.08789 53.0024 9.08789C52.6802 9.08789 52.3975 9.0249 52.1543 8.89893C51.9141 8.77295 51.7266 8.60449 51.5918 8.39355C51.46 8.17969 51.394 7.94092 51.394 7.67725C51.394 7.42236 51.4438 7.19824 51.5435 7.00488C51.6431 6.80859 51.7866 6.646 51.9741 6.51709C52.1616 6.38525 52.3872 6.28564 52.6509 6.21826C52.9146 6.15088 53.209 6.11719 53.5342 6.11719H54.479ZM58.2979 4.24512V9H57.4805V4.24512H58.2979ZM59.8931 4.24512V4.9043H55.916V4.24512H59.8931ZM61.5059 5.15918V10.8281H60.6885V4.24512H61.4355L61.5059 5.15918ZM64.7095 6.58301V6.67529C64.7095 7.021 64.6685 7.3418 64.5864 7.6377C64.5044 7.93066 64.3843 8.18555 64.2261 8.40234C64.0708 8.61914 63.8789 8.7876 63.6504 8.90771C63.4219 9.02783 63.1597 9.08789 62.8638 9.08789C62.562 9.08789 62.2954 9.03809 62.064 8.93848C61.8325 8.83887 61.6362 8.69385 61.4751 8.50342C61.314 8.31299 61.1851 8.08447 61.0884 7.81787C60.9946 7.55127 60.9302 7.25098 60.895 6.91699V6.4248C60.9302 6.07324 60.9961 5.7583 61.0928 5.47998C61.1895 5.20166 61.3169 4.96436 61.4751 4.76807C61.6362 4.56885 61.8311 4.41797 62.0596 4.31543C62.2881 4.20996 62.5518 4.15723 62.8506 4.15723C63.1494 4.15723 63.4146 4.21582 63.646 4.33301C63.8774 4.44727 64.0723 4.61133 64.2305 4.8252C64.3887 5.03906 64.5073 5.29541 64.5864 5.59424C64.6685 5.89014 64.7095 6.21973 64.7095 6.58301ZM63.8921 6.67529V6.58301C63.8921 6.3457 63.8672 6.12305 63.8174 5.91504C63.7676 5.7041 63.6899 5.51953 63.5845 5.36133C63.4819 5.2002 63.3501 5.07422 63.189 4.9834C63.0278 4.88965 62.8359 4.84277 62.6133 4.84277C62.4082 4.84277 62.2295 4.87793 62.0771 4.94824C61.9277 5.01855 61.8003 5.11377 61.6948 5.23389C61.5894 5.35107 61.5029 5.48584 61.4355 5.63818C61.3711 5.7876 61.3228 5.94287 61.2905 6.104V7.24219C61.3491 7.44727 61.4312 7.64062 61.5366 7.82227C61.6421 8.00098 61.7827 8.146 61.9585 8.25732C62.1343 8.36572 62.3555 8.41992 62.6221 8.41992C62.8418 8.41992 63.0308 8.37451 63.189 8.28369C63.3501 8.18994 63.4819 8.0625 63.5845 7.90137C63.6899 7.74023 63.7676 7.55566 63.8174 7.34766C63.8672 7.13672 63.8921 6.9126 63.8921 6.67529ZM66.6255 7.7124L68.8184 4.24512H69.6357V9H68.8184V5.53271L66.6255 9H65.8169V4.24512H66.6255V7.7124ZM73.9907 2.17529H74.6587C74.6587 2.4624 74.6147 2.69092 74.5269 2.86084C74.439 3.02783 74.3188 3.15674 74.1665 3.24756C74.0171 3.33838 73.8472 3.40723 73.6567 3.4541C73.4692 3.50098 73.2744 3.54639 73.0723 3.59033C72.8203 3.64307 72.5859 3.72656 72.3691 3.84082C72.1553 3.95215 71.9707 4.11035 71.8154 4.31543C71.6631 4.52051 71.5503 4.78711 71.4771 5.11523C71.4067 5.44336 71.3877 5.84912 71.4199 6.33252V6.73682H70.752V6.33252C70.752 5.79053 70.8032 5.31738 70.9058 4.91309C71.0112 4.50879 71.1592 4.16748 71.3496 3.88916C71.54 3.61084 71.7656 3.38965 72.0264 3.22559C72.29 3.06152 72.5801 2.94873 72.8965 2.88721C73.125 2.84326 73.3213 2.79639 73.4854 2.74658C73.6494 2.69385 73.7739 2.62354 73.8589 2.53564C73.9468 2.44775 73.9907 2.32764 73.9907 2.17529ZM73.0283 4.51758C73.3389 4.51758 73.6157 4.57178 73.8589 4.68018C74.1021 4.78857 74.3086 4.93945 74.4785 5.13281C74.6484 5.32617 74.7773 5.55469 74.8652 5.81836C74.9561 6.0791 75.0015 6.36328 75.0015 6.6709V6.76758C75.0015 7.09863 74.9531 7.40625 74.8564 7.69043C74.7627 7.97168 74.6235 8.21777 74.439 8.42871C74.2573 8.63672 74.0347 8.79932 73.771 8.9165C73.5103 9.03369 73.2129 9.09229 72.8789 9.09229C72.5449 9.09229 72.2461 9.03369 71.9824 8.9165C71.7217 8.79932 71.499 8.63672 71.3145 8.42871C71.1299 8.21777 70.9893 7.97168 70.8926 7.69043C70.7988 7.40625 70.752 7.09863 70.752 6.76758V6.6709C70.752 6.59766 70.7651 6.52588 70.7915 6.45557C70.8179 6.38525 70.8501 6.31348 70.8882 6.24023C70.9292 6.16699 70.9658 6.08936 70.998 6.00732C71.1064 5.74365 71.2544 5.49902 71.4419 5.27344C71.6323 5.04785 71.8594 4.86621 72.123 4.72852C72.3896 4.58789 72.6914 4.51758 73.0283 4.51758ZM72.8701 5.18115C72.5713 5.18115 72.3252 5.25 72.1318 5.3877C71.9414 5.52539 71.7993 5.7085 71.7056 5.93701C71.6118 6.1626 71.5649 6.40723 71.5649 6.6709V6.76758C71.5649 6.99023 71.5913 7.20117 71.644 7.40039C71.6968 7.59961 71.7759 7.77686 71.8813 7.93213C71.9897 8.08447 72.126 8.20459 72.29 8.29248C72.457 8.38037 72.6533 8.42432 72.8789 8.42432C73.1045 8.42432 73.2993 8.38037 73.4634 8.29248C73.6274 8.20459 73.7622 8.08447 73.8677 7.93213C73.9731 7.77686 74.0522 7.59961 74.105 7.40039C74.1577 7.20117 74.1841 6.99023 74.1841 6.76758V6.6709C74.1841 6.47168 74.1577 6.28271 74.105 6.104C74.0522 5.92529 73.9717 5.76709 73.8633 5.62939C73.7578 5.4917 73.6216 5.3833 73.4546 5.3042C73.2905 5.22217 73.0957 5.18115 72.8701 5.18115ZM77.2603 8.50781L78.583 4.24512H79.4531L77.5459 9.73389C77.502 9.85107 77.4434 9.97705 77.3701 10.1118C77.2998 10.2495 77.209 10.3799 77.0977 10.5029C76.9863 10.626 76.8516 10.7256 76.6934 10.8018C76.5381 10.8809 76.3521 10.9204 76.1353 10.9204C76.0708 10.9204 75.9888 10.9116 75.8892 10.894C75.7896 10.8765 75.7192 10.8618 75.6782 10.8501L75.6738 10.1909C75.6973 10.1938 75.7339 10.1968 75.7837 10.1997C75.8364 10.2056 75.873 10.2085 75.8936 10.2085C76.0781 10.2085 76.2349 10.1836 76.3638 10.1338C76.4927 10.0869 76.6011 10.0063 76.689 9.89209C76.7798 9.78076 76.8574 9.62695 76.9219 9.43066L77.2603 8.50781ZM76.2891 4.24512L77.5239 7.93652L77.7349 8.79346L77.1504 9.09229L75.4014 4.24512H76.2891ZM82.125 4.24512V9H81.3076V4.24512H82.125ZM83.7202 4.24512V4.9043H79.7432V4.24512H83.7202Z" fill="#0FC5FF"/>
<line x1="1" y1="11.75" x2="84" y2="11.75" stroke="#5FC6F1" stroke-width="0.5" stroke-dasharray="2 2"/>
</svg>
